<svg width="148" height="148" viewBox="0 0 148 148" fill="none" xmlns="http://www.w3.org/2000/svg">
<path d="M4.625 27.75V129.5H55.5V97.125C58.5415 100.166 60.8332 103.875 62.1934 107.955L62.4072 108.597C66.5683 121.08 78.2507 129.5 91.4092 129.5H101.75H111.518C125.172 129.5 137.45 121.187 142.521 108.51C143.089 107.09 143.529 105.608 143.828 104.108C146.567 90.414 146.59 76.1996 143.851 62.5058L143.375 60.125L141.792 54.5854C137.254 38.7012 122.735 27.75 106.216 27.75H101.75H4.625Z" fill="#90ED5E"/>
<path d="M22.4861 111V43.7273H67.028V55.454H36.7093V71.4838H64.0717V83.2106H36.7093V111H22.4861ZM113.09 63.0747C112.826 60.425 111.698 58.3666 109.706 56.8993C107.713 55.4321 105.009 54.6985 101.593 54.6985C99.271 54.6985 97.3109 55.027 95.7125 55.684C94.1141 56.319 92.8876 57.2059 92.0335 58.3447C91.2014 59.4833 90.7853 60.7754 90.7853 62.2207C90.7416 63.4251 90.9934 64.4763 91.5409 65.3741C92.1102 66.272 92.8876 67.0494 93.8727 67.7063C94.8587 68.3414 95.9974 68.8998 97.2896 69.3816C98.5809 69.8415 99.961 70.2356 101.428 70.5641L107.472 72.0094C110.406 72.6663 113.1 73.5423 115.553 74.6372C118.005 75.7322 120.13 77.079 121.925 78.6775C123.721 80.2761 125.112 82.1594 126.097 84.3274C127.104 86.4954 127.619 88.9808 127.641 91.784C127.619 95.9012 126.568 99.4708 124.487 102.493C122.429 105.493 119.451 107.824 115.553 109.489C111.677 111.131 107.001 111.953 101.527 111.953C96.0955 111.953 91.3657 111.12 87.3363 109.456C83.3288 107.792 80.1973 105.328 77.9418 102.065C75.7081 98.7808 74.5365 94.7182 74.427 89.8787H88.1903C88.3436 92.1343 88.9896 94.0179 90.1284 95.5285C91.289 97.0177 92.833 98.1453 94.7598 98.9121C96.7087 99.6567 98.9093 100.029 101.362 100.029C103.771 100.029 105.863 99.678 107.637 98.9778C109.432 98.2766 110.822 97.3026 111.808 96.0539C112.794 94.806 113.287 93.3714 113.287 91.751C113.287 90.24 112.837 88.9699 111.94 87.9407C111.064 86.9114 109.772 86.0355 108.063 85.3128C106.377 84.5902 104.308 83.9332 101.855 83.342L94.5304 81.5025C88.8583 80.1229 84.38 77.9659 81.0952 75.0315C77.8103 72.097 76.1789 68.1443 76.2008 63.1733C76.1789 59.1001 77.2629 55.5416 79.4528 52.4977C81.6645 49.4537 84.6975 47.0778 88.5516 45.3697C92.4058 43.6616 96.7855 42.8075 101.691 42.8075C106.684 42.8075 111.042 43.6616 114.765 45.3697C118.509 47.0778 121.422 49.4537 123.502 52.4977C125.583 55.5416 126.656 59.0673 126.721 63.0747H113.09Z" fill="black"/>
</svg>
